<svg width="128" height="128" xmlns="http://www.w3.org/2000/svg" viewBox="0 0 128 128" fill="none" stroke="black" stroke-width="2" stroke-linecap="round" stroke-linejoin="round">
    <circle cx="64" cy="64" r="50" stroke-width="4" />
    
    <g transform="translate(64, 64) rotate(30) scale(0.8) translate(-64, -59)">
        <!-- Flaschenkörper (unten, schulter, hals) -->
        <path d="M 40 100 Q 40 108 50 108 L 78 108 Q 88 108 88 100 L 88 55 A 13 13 0 0 0 75 42 L 75 25 L 53 25 L 53 42 A 13 13 0 0 0 40 55 Z" />
        
        <!-- Flaschenmündung / Kragen -->
        <rect x="51" y="24" width="26" height="4" rx="2" />
        
        <!-- Deckel -->
        <rect x="52" y="10" width="24" height="15" />

        <!-- Oberes Etikett (Halsetikett) -->
        <path d="M 53 35 L 75 35 L 75 40 L 53 40 Z" />
        <path d="M 57 38 C 65 34 70 42 70 36" />

        <!-- Hauptetikett -->
        <rect x="40" y="65" width="48" height="30" />
        
        <!-- Ränder am Hauptetikett -->
        <line x1="40" y1="67" x2="88" y2="67" />
        <line x1="40" y1="93" x2="88" y2="93" />

        <!-- Flamme (außen) -->
        <path d="M 64 68 C 68 78 77 72 80 82 C 82 92 72 94 64 94 C 56 94 46 92 48 82 C 51 72 60 78 64 68 Z" />
        
        <!-- Flamme (innen) -->
        <path d="M 64 72 C 67 79 72 75 74 83 C 75 88 69 90 64 90 C 59 90 53 88 54 83 C 56 75 61 79 64 72 Z" />

        <!-- Chili in der Flamme -->
        <path d="M 62 80 Q 64 90 66 80 Q 64 85 62 80 Z" />
        <path d="M 64 79 Q 64 76 65 74" />

        <!-- Kleine verzierende Punkte / Chilis auf dem Etikett -->
        <circle cx="43" cy="74" r="1.5" fill="currentColor" stroke="none" />
        <circle cx="45" cy="88" r="1.5" fill="currentColor" stroke="none" />
        <circle cx="85" cy="73" r="1.5" fill="currentColor" stroke="none" />
        <circle cx="84" cy="85" r="1.5" fill="currentColor" stroke="none" />
    </g>
</svg>